<svg xmlns="http://www.w3.org/2000/svg" xmlns:xlink="http://www.w3.org/1999/xlink" width="840" height="581.04"><rect width="840" height="581.04" rx="5" ry="5" class="a"/><svg y="0%" x="0%"><circle cx="20" cy="20" r="6" fill="#ff5f58"/><circle cx="40" cy="20" r="6" fill="#ffbd2e"/><circle cx="60" cy="20" r="6" fill="#18c132"/></svg><svg height="521.04" viewBox="0 0 80 52.104" width="800" x="15" xmlns="http://www.w3.org/2000/svg" xmlns:xlink="http://www.w3.org/1999/xlink" y="50"><style>@keyframes j{0%{transform:translateX(0)}.18%{transform:translateX(-80px)}.23%{transform:translateX(-160px)}9.85%{transform:translateX(-240px)}14.73%{transform:translateX(-320px)}19.68%{transform:translateX(-480px)}29.3%{transform:translateX(-560px)}34.98%{transform:translateX(-640px)}44.6%{transform:translateX(-720px)}54.22%{transform:translateX(-800px)}59.09%{transform:translateX(-880px)}65.32%{transform:translateX(-960px)}74.94%{transform:translateX(-1040px)}79.83%{transform:translateX(-1120px)}85.46%{transform:translateX(-1200px)}95.08%{transform:translateX(-1280px)}to{transform:translateX(-1360px)}}.a{fill:#282d35}.f,.g{fill:#b9c0cb;white-space:pre}.g{fill:#66c2cd;font-weight:700}</style><g font-family="Monaco,Consolas,Menlo,'Bitstream Vera Sans Mono','Powerline Symbols',monospace" font-size="1.67"><defs><symbol id="1"><text y="1.67" class="f">============================================================</text></symbol><symbol id="2"><text y="1.67" class="f">SpendGuard</text><text x="11.022" y="1.67" class="f">—</text><text x="13.026" y="1.67" class="f">Agent</text><text x="19.038" y="1.67" class="f">Runtime</text><text x="27.054" y="1.67" class="f">Spend</text><text x="33.066" y="1.67" class="f">Guardrails</text></symbol><symbol id="3"><text y="1.67" class="f">Phase</text><text x="6.012" y="1.67" class="f">3</text><text x="8.016" y="1.67" class="f">Wedge:</text><text x="15.03" y="1.67" class="f">Contract</text><text x="24.048" y="1.67" class="f">DSL</text><text x="28.056" y="1.67" class="f">hot-path</text><text x="37.074" y="1.67" class="f">evaluator</text><text x="47.094" y="1.67" class="f">(POC)</text></symbol><symbol id="4"><text x="2.004" y="1.67" class="f">agent</text><text x="8.016" y="1.67" class="f">step</text><text x="13.026" y="1.67" class="f">→</text><text x="15.03" y="1.67" class="f">sidecar</text><text x="23.046" y="1.67" class="f">(&lt;5ms)</text><text x="30.06" y="1.67" class="f">→</text><text x="32.064" y="1.67" class="f">reads</text><text x="38.076" y="1.67" class="f">contract.yaml</text><text x="52.104" y="1.67" class="f">→</text><text x="54.108" y="1.67" class="f">STOP</text><text x="59.118" y="1.67" class="f">/</text><text x="61.122" y="1.67" class="f">DEGRADE</text><text x="69.138" y="1.67" class="f">/</text><text x="71.142" y="1.67" class="f">pass</text></symbol><symbol id="5"><text x="52.104" y="1.67" class="f">→</text><text x="54.108" y="1.67" class="f">audit</text><text x="60.12" y="1.67" class="f">row</text><text x="64.128" y="1.67" class="f">durable</text></symbol><symbol id="6"><text x="52.104" y="1.67" class="f">→</text><text x="54.108" y="1.67" class="f">ledger</text><text x="61.122" y="1.67" class="f">reservation</text><text x="73.146" y="1.67" class="f">atomic</text></symbol><symbol id="7"><text y="1.67" class="g">==</text><text x="3.006" y="1.67" class="g">1.</text><text x="6.012" y="1.67" class="g">The</text><text x="10.02" y="1.67" class="g">contract</text><text x="19.038" y="1.67" class="g">a</text><text x="21.042" y="1.67" class="g">customer</text><text x="30.06" y="1.67" class="g">ships</text><text x="36.072" y="1.67" class="g">(excerpt</text><text x="45.09" y="1.67" class="g">from</text><text x="50.1" y="1.67" class="g">bundle)</text><text x="58.116" y="1.67" class="g">==</text></symbol><symbol id="8"><text y="1.67" class="f">#</text><text x="2.004" y="1.67" class="f">Declarative</text><text x="14.028" y="1.67" class="f">when/then;</text><text x="25.05" y="1.67" class="f">POC</text><text x="29.058" y="1.67" class="f">subset</text><text x="36.072" y="1.67" class="f">of</text><text x="39.078" y="1.67" class="f">Contract</text><text x="48.096" y="1.67" class="f">DSL</text><text x="52.104" y="1.67" class="f">§6/§7.</text></symbol><symbol id="9"><text x="2.004" y="1.67" class="f">apiVersion:</text><text x="14.028" y="1.67" class="f">contract.spendguard.io/v1alpha1</text></symbol><symbol id="10"><text x="2.004" y="1.67" class="f">kind:</text><text x="8.016" y="1.67" class="f">Contract</text></symbol><symbol id="11"><text x="2.004" y="1.67" class="f">metadata:</text></symbol><symbol id="12"><text x="4.008" y="1.67" class="f">id:</text><text x="8.016" y="1.67" class="f">$CONTRACT_LOGICAL_ID</text></symbol><symbol id="13"><text x="4.008" y="1.67" class="f">name:</text><text x="10.02" y="1.67" class="f">demo-contract</text></symbol><symbol id="14"><text x="2.004" y="1.67" class="f">spec:</text></symbol><symbol id="15"><text x="4.008" y="1.67" class="f">budgets:</text></symbol><symbol id="16"><text x="6.012" y="1.67" class="f">-</text><text x="8.016" y="1.67" class="f">id:</text><text x="12.024" y="1.67" class="f">$DEMO_BUDGET_ID</text></symbol><symbol id="17"><text x="8.016" y="1.67" class="f">limit_amount_atomic:</text><text x="29.058" y="1.67" class="f">&quot;1000000000&quot;</text></symbol><symbol id="18"><text x="8.016" y="1.67" class="f">currency:</text><text x="18.036" y="1.67" class="f">USD</text></symbol><symbol id="19"><text x="8.016" y="1.67" class="f">reservation_ttl_seconds:</text><text x="33.066" y="1.67" class="f">600</text></symbol><symbol id="20"><text x="8.016" y="1.67" class="f">require_hard_cap:</text><text x="26.052" y="1.67" class="f">true</text></symbol><symbol id="21"><text x="4.008" y="1.67" class="f">rules:</text></symbol><symbol id="22"><text x="6.012" y="1.67" class="f">-</text><text x="8.016" y="1.67" class="f">id:</text><text x="12.024" y="1.67" class="f">hard-cap-deny</text></symbol><symbol id="23"><text x="8.016" y="1.67" class="f">when:</text></symbol><symbol id="24"><text x="10.02" y="1.67" class="f">budget_id:</text><text x="21.042" y="1.67" class="f">$DEMO_BUDGET_ID</text></symbol><symbol id="25"><text x="10.02" y="1.67" class="f">claim_amount_atomic_gt:</text><text x="34.068" y="1.67" class="f">&quot;1000000000&quot;</text></symbol><symbol id="26"><text x="8.016" y="1.67" class="f">then:</text></symbol><symbol id="27"><text x="10.02" y="1.67" class="f">decision:</text><text x="20.04" y="1.67" class="f">STOP</text></symbol><symbol id="28"><text y="1.67" class="g">==</text><text x="3.006" y="1.67" class="g">2.</text><text x="6.012" y="1.67" class="g">Send</text><text x="11.022" y="1.67" class="g">a</text><text x="13.026" y="1.67" class="g">$2000</text><text x="19.038" y="1.67" class="g">claim</text><text x="25.05" y="1.67" class="g">—</text><text x="27.054" y="1.67" class="g">twice</text><text x="33.066" y="1.67" class="g">the</text><text x="37.074" y="1.67" class="g">$1000</text><text x="43.086" y="1.67" class="g">hard</text><text x="48.096" y="1.67" class="g">cap</text><text x="52.104" y="1.67" class="g">==</text></symbol><symbol id="29"><text y="1.67" class="f">#</text><text x="2.004" y="1.67" class="f">Adapter</text><text x="10.02" y="1.67" class="f">raises</text><text x="17.034" y="1.67" class="f">DecisionStopped</text><text x="33.066" y="1.67" class="f">before</text><text x="40.08" y="1.67" class="f">any</text><text x="44.088" y="1.67" class="f">reservation</text><text x="56.112" y="1.67" class="f">is</text><text x="59.118" y="1.67" class="f">taken.</text></symbol><symbol id="30"><text y="1.67" class="f">[demo]</text><text x="7.014" y="1.67" class="f">connecting</text><text x="18.036" y="1.67" class="f">to</text><text x="21.042" y="1.67" class="f">sidecar</text><text x="29.058" y="1.67" class="f">at</text><text x="32.064" y="1.67" class="f">/var/run/spendguard/adapter.sock</text></symbol><symbol id="31"><text y="1.67" class="f">[demo]</text><text x="7.014" y="1.67" class="f">handshake</text><text x="17.034" y="1.67" class="f">ok</text><text x="20.04" y="1.67" class="f">session_id=019e0b28-88fd-7d23-aa5d-2302d034b6d1</text></symbol><symbol id="32"><text y="1.67" class="f">[demo]</text><text x="7.014" y="1.67" class="f">DENY</text><text x="12.024" y="1.67" class="f">raised</text><text x="19.038" y="1.67" class="f">decision_id=019e0b28-8900-7243-be4c-dcf28f2a8de3</text><text x="68.136" y="1.67" class="f">reason_codes</text></symbol><symbol id="33"><text y="1.67" class="f">=[&apos;BUDGET_EXHAUSTED&apos;]</text><text x="22.044" y="1.67" class="f">matched_rule_ids=[&apos;33333333-3333-4333-8333-333333333333:44</text></symbol><symbol id="34"><text y="1.67" class="f">444444-4444-4444-8444-444444444444:hard-cap-deny&apos;]</text><text x="51.102" y="1.67" class="f">audit_decision_event_id=019e0</text></symbol><symbol id="35"><text y="1.67" class="f">b28-8900-7243-be4c-dd0d6fa0c8a9</text></symbol><symbol id="36"><text y="1.67" class="f">[demo]</text><text x="7.014" y="1.67" class="f">DENY</text><text x="12.024" y="1.67" class="f">assertions</text><text x="23.046" y="1.67" class="f">PASS</text></symbol><symbol id="37"><text y="1.67" class="g">==</text><text x="3.006" y="1.67" class="g">3.</text><text x="6.012" y="1.67" class="g">The</text><text x="10.02" y="1.67" class="g">audit</text><text x="16.032" y="1.67" class="g">chain</text><text x="22.044" y="1.67" class="g">—</text><text x="24.048" y="1.67" class="g">ledger.audit_outbox</text><text x="44.088" y="1.67" class="g">==</text></symbol><symbol id="38"><text y="1.67" class="f">#</text><text x="2.004" y="1.67" class="f">Carrier</text><text x="10.02" y="1.67" class="f">ledger_transactions</text><text x="30.06" y="1.67" class="f">row</text><text x="34.068" y="1.67" class="f">(no</text><text x="38.076" y="1.67" class="f">entries)</text><text x="47.094" y="1.67" class="f">+</text><text x="49.098" y="1.67" class="f">1</text><text x="51.102" y="1.67" class="f">audit_outbox</text><text x="64.128" y="1.67" class="f">row.</text></symbol><symbol id="39"><text x="1.002" y="1.67" class="f">operation_kind</text><text x="17.034" y="1.67" class="f">|</text><text x="19.038" y="1.67" class="f">posting_state</text><text x="33.066" y="1.67" class="f">|</text><text x="47.094" y="1.67" class="f">decision_id</text></symbol><symbol id="40"><text y="1.67" class="f">-----------------+---------------+--------------------------------------</text></symbol><symbol id="41"><text x="1.002" y="1.67" class="f">denied_decision</text><text x="17.034" y="1.67" class="f">|</text><text x="19.038" y="1.67" class="f">posted</text><text x="33.066" y="1.67" class="f">|</text><text x="35.07" y="1.67" class="f">019e0b28-8900-7243-be4c-dcf28f2a8de3</text></symbol><symbol id="42"><text y="1.67" class="f">(1</text><text x="3.006" y="1.67" class="f">row)</text></symbol><symbol id="43"><text y="1.67" class="g">==</text><text x="3.006" y="1.67" class="g">4.</text><text x="6.012" y="1.67" class="g">...</text><text x="10.02" y="1.67" class="g">and</text><text x="14.028" y="1.67" class="g">what</text><text x="19.038" y="1.67" class="g">canonical_events</text><text x="36.072" y="1.67" class="g">received</text><text x="45.09" y="1.67" class="g">(compliance</text><text x="57.114" y="1.67" class="g">store)</text><text x="64.128" y="1.67" class="g">==</text></symbol><symbol id="44"><text y="1.67" class="f">#</text><text x="2.004" y="1.67" class="f">Outbox</text><text x="9.018" y="1.67" class="f">forwarder</text><text x="19.038" y="1.67" class="f">pushed</text><text x="26.052" y="1.67" class="f">the</text><text x="30.06" y="1.67" class="f">audit</text><text x="36.072" y="1.67" class="f">row</text><text x="40.08" y="1.67" class="f">immutably.</text></symbol><symbol id="45"><text x="8.016" y="1.67" class="f">event_type</text><text x="27.054" y="1.67" class="f">|</text><text x="40.08" y="1.67" class="f">source</text></symbol><symbol id="46"><text y="1.67" class="f">---------------------------+-------------------------------</text></symbol><symbol id="47"><text x="1.002" y="1.67" class="f">spendguard.audit.decision</text><text x="27.054" y="1.67" class="f">|</text><text x="29.058" y="1.67" class="f">sidecar://demo/sidecar-demo-1</text></symbol><symbol id="48"><text y="1.67" class="f">(3</text><text x="3.006" y="1.67" class="f">rows)</text></symbol><symbol id="49"><text y="1.67" class="g">==</text><text x="3.006" y="1.67" class="g">5.</text><text x="6.012" y="1.67" class="g">The</text><text x="10.02" y="1.67" class="g">wedge</text><text x="16.032" y="1.67" class="g">in</text><text x="19.038" y="1.67" class="g">one</text><text x="23.046" y="1.67" class="g">diagram</text><text x="31.062" y="1.67" class="g">==</text></symbol><symbol id="a"><path fill="transparent" d="M0 0h80v25H0z"/></symbol><symbol id="b"><path fill="#6f7683" d="M0 0h1.102v2.171H0z"/></symbol></defs><path class="a" d="M0 0h80v52.104H0z"/><g style="animation-duration:20.793s;animation-iteration-count:infinite;animation-name:j;animation-timing-function:steps(1,end)"><svg width="1440"><svg><use xlink:href="#a"/><use xlink:href="#b" x="-.004"/></svg><svg x="80"><use xlink:href="#a"/><use xlink:href="#b" x="-.004"/></svg><svg x="160"><use xlink:href="#a"/><use xlink:href="#b" x="-.004" y="17.343"/><use xlink:href="#1"/><use xlink:href="#2" y="2.171"/><use xlink:href="#3" y="4.342"/><use xlink:href="#4" y="8.684"/><use xlink:href="#5" y="10.855"/><use xlink:href="#6" y="13.026"/><use xlink:href="#1" y="15.197"/></svg><svg x="240"><use xlink:href="#a"/><use xlink:href="#b" x="-.004" y="23.856"/><use xlink:href="#1"/><use xlink:href="#2" y="2.171"/><use xlink:href="#3" y="4.342"/><use xlink:href="#4" y="8.684"/><use xlink:href="#5" y="10.855"/><use xlink:href="#6" y="13.026"/><use xlink:href="#1" y="15.197"/><use xlink:href="#7" y="19.539"/></svg><svg x="320"><use xlink:href="#a"/><use xlink:href="#b" x="-.004" y="26.027"/><use xlink:href="#1"/><use xlink:href="#2" y="2.171"/><use xlink:href="#3" y="4.342"/><use xlink:href="#4" y="8.684"/><use xlink:href="#5" y="10.855"/><use xlink:href="#6" y="13.026"/><use xlink:href="#1" y="15.197"/><use xlink:href="#7" y="19.539"/><use xlink:href="#8" y="23.881"/></svg><svg x="400"><use xlink:href="#a"/><use xlink:href="#b" x="-.004" y="52.079"/><use xlink:href="#3"/><use xlink:href="#4" y="4.342"/><use xlink:href="#5" y="6.513"/><use xlink:href="#6" y="8.684"/><use xlink:href="#1" y="10.855"/><use xlink:href="#7" y="15.197"/><use xlink:href="#8" y="19.539"/><use xlink:href="#9" y="21.71"/><use xlink:href="#10" y="23.881"/><use xlink:href="#11" y="26.052"/><use xlink:href="#12" y="28.223"/><use xlink:href="#13" y="30.394"/><use xlink:href="#14" y="32.565"/><use xlink:href="#15" y="34.736"/><use xlink:href="#16" y="36.907"/><use xlink:href="#17" y="39.078"/><use xlink:href="#18" y="41.249"/><use xlink:href="#19" y="43.42"/><use xlink:href="#20" y="45.591"/><use xlink:href="#21" y="47.762"/><use xlink:href="#22" y="49.933"/></svg><svg x="480"><use xlink:href="#a"/><use xlink:href="#b" x="-.004" y="52.079"/><use xlink:href="#1"/><use xlink:href="#7" y="4.342"/><use xlink:href="#8" y="8.684"/><use xlink:href="#9" y="10.855"/><use xlink:href="#10" y="13.026"/><use xlink:href="#11" y="15.197"/><use xlink:href="#12" y="17.368"/><use xlink:href="#13" y="19.539"/><use xlink:href="#14" y="21.71"/><use xlink:href="#15" y="23.881"/><use xlink:href="#16" y="26.052"/><use xlink:href="#17" y="28.223"/><use xlink:href="#18" y="30.394"/><use xlink:href="#19" y="32.565"/><use xlink:href="#20" y="34.736"/><use xlink:href="#21" y="36.907"/><use xlink:href="#22" y="39.078"/><use xlink:href="#23" y="41.249"/><use xlink:href="#24" y="43.42"/><use xlink:href="#25" y="45.591"/><use xlink:href="#26" y="47.762"/><use xlink:href="#27" y="49.933"/></svg><svg x="560"><use xlink:href="#a"/><use xlink:href="#b" x="-.004" y="52.079"/><use xlink:href="#8" y="2.171"/><use xlink:href="#9" y="4.342"/><use xlink:href="#10" y="6.513"/><use xlink:href="#11" y="8.684"/><use xlink:href="#12" y="10.855"/><use xlink:href="#13" y="13.026"/><use xlink:href="#14" y="15.197"/><use xlink:href="#15" y="17.368"/><use xlink:href="#16" y="19.539"/><use xlink:href="#17" y="21.71"/><use xlink:href="#18" y="23.881"/><use xlink:href="#19" y="26.052"/><use xlink:href="#20" y="28.223"/><use xlink:href="#21" y="30.394"/><use xlink:href="#22" y="32.565"/><use xlink:href="#23" y="34.736"/><use xlink:href="#24" y="36.907"/><use xlink:href="#25" y="39.078"/><use xlink:href="#26" y="41.249"/><use xlink:href="#27" y="43.42"/><use xlink:href="#28" y="47.762"/></svg><svg x="640"><use xlink:href="#a"/><use xlink:href="#b" x="-.004" y="52.079"/><use xlink:href="#8"/><use xlink:href="#9" y="2.171"/><use xlink:href="#10" y="4.342"/><use xlink:href="#11" y="6.513"/><use xlink:href="#12" y="8.684"/><use xlink:href="#13" y="10.855"/><use xlink:href="#14" y="13.026"/><use xlink:href="#15" y="15.197"/><use xlink:href="#16" y="17.368"/><use xlink:href="#17" y="19.539"/><use xlink:href="#18" y="21.71"/><use xlink:href="#19" y="23.881"/><use xlink:href="#20" y="26.052"/><use xlink:href="#21" y="28.223"/><use xlink:href="#22" y="30.394"/><use xlink:href="#23" y="32.565"/><use xlink:href="#24" y="34.736"/><use xlink:href="#25" y="36.907"/><use xlink:href="#26" y="39.078"/><use xlink:href="#27" y="41.249"/><use xlink:href="#28" y="45.591"/><use xlink:href="#29" y="49.933"/></svg><svg x="720"><use xlink:href="#a"/><use xlink:href="#b" x="-.004" y="52.079"/><use xlink:href="#15"/><use xlink:href="#16" y="2.171"/><use xlink:href="#17" y="4.342"/><use xlink:href="#18" y="6.513"/><use xlink:href="#19" y="8.684"/><use xlink:href="#20" y="10.855"/><use xlink:href="#21" y="13.026"/><use xlink:href="#22" y="15.197"/><use xlink:href="#23" y="17.368"/><use xlink:href="#24" y="19.539"/><use xlink:href="#25" y="21.71"/><use xlink:href="#26" y="23.881"/><use xlink:href="#27" y="26.052"/><use xlink:href="#28" y="30.394"/><use xlink:href="#29" y="34.736"/><use xlink:href="#30" y="36.907"/><use xlink:href="#31" y="39.078"/><use xlink:href="#32" y="41.249"/><use xlink:href="#33" y="43.42"/><use xlink:href="#34" y="45.591"/><use xlink:href="#35" y="47.762"/><use xlink:href="#36" y="49.933"/></svg><svg x="800"><use xlink:href="#a"/><use xlink:href="#b" x="-.004" y="52.079"/><use xlink:href="#18"/><use xlink:href="#19" y="2.171"/><use xlink:href="#20" y="4.342"/><use xlink:href="#21" y="6.513"/><use xlink:href="#22" y="8.684"/><use xlink:href="#23" y="10.855"/><use xlink:href="#24" y="13.026"/><use xlink:href="#25" y="15.197"/><use xlink:href="#26" y="17.368"/><use xlink:href="#27" y="19.539"/><use xlink:href="#28" y="23.881"/><use xlink:href="#29" y="28.223"/><use xlink:href="#30" y="30.394"/><use xlink:href="#31" y="32.565"/><use xlink:href="#32" y="34.736"/><use xlink:href="#33" y="36.907"/><use xlink:href="#34" y="39.078"/><use xlink:href="#35" y="41.249"/><use xlink:href="#36" y="43.42"/><use xlink:href="#37" y="47.762"/></svg><svg x="880"><use xlink:href="#a"/><use xlink:href="#b" x="-.004" y="52.079"/><use xlink:href="#19"/><use xlink:href="#20" y="2.171"/><use xlink:href="#21" y="4.342"/><use xlink:href="#22" y="6.513"/><use xlink:href="#23" y="8.684"/><use xlink:href="#24" y="10.855"/><use xlink:href="#25" y="13.026"/><use xlink:href="#26" y="15.197"/><use xlink:href="#27" y="17.368"/><use xlink:href="#28" y="21.71"/><use xlink:href="#29" y="26.052"/><use xlink:href="#30" y="28.223"/><use xlink:href="#31" y="30.394"/><use xlink:href="#32" y="32.565"/><use xlink:href="#33" y="34.736"/><use xlink:href="#34" y="36.907"/><use xlink:href="#35" y="39.078"/><use xlink:href="#36" y="41.249"/><use xlink:href="#37" y="45.591"/><use xlink:href="#38" y="49.933"/></svg><svg x="960"><use xlink:href="#a"/><use xlink:href="#b" x="-.004" y="52.079"/><use xlink:href="#24"/><use xlink:href="#25" y="2.171"/><use xlink:href="#26" y="4.342"/><use xlink:href="#27" y="6.513"/><use xlink:href="#28" y="10.855"/><use xlink:href="#29" y="15.197"/><use xlink:href="#30" y="17.368"/><use xlink:href="#31" y="19.539"/><use xlink:href="#32" y="21.71"/><use xlink:href="#33" y="23.881"/><use xlink:href="#34" y="26.052"/><use xlink:href="#35" y="28.223"/><use xlink:href="#36" y="30.394"/><use xlink:href="#37" y="34.736"/><use xlink:href="#38" y="39.078"/><use xlink:href="#39" y="41.249"/><use xlink:href="#40" y="43.42"/><use xlink:href="#41" y="45.591"/><use xlink:href="#42" y="47.762"/></svg><svg x="1040"><use xlink:href="#a"/><use xlink:href="#b" x="-.004" y="52.079"/><use xlink:href="#27"/><use xlink:href="#28" y="4.342"/><use xlink:href="#29" y="8.684"/><use xlink:href="#30" y="10.855"/><use xlink:href="#31" y="13.026"/><use xlink:href="#32" y="15.197"/><use xlink:href="#33" y="17.368"/><use xlink:href="#34" y="19.539"/><use xlink:href="#35" y="21.71"/><use xlink:href="#36" y="23.881"/><use xlink:href="#37" y="28.223"/><use xlink:href="#38" y="32.565"/><use xlink:href="#39" y="34.736"/><use xlink:href="#40" y="36.907"/><use xlink:href="#41" y="39.078"/><use xlink:href="#42" y="41.249"/><use xlink:href="#43" y="47.762"/></svg><svg x="1120"><use xlink:href="#a"/><use xlink:href="#b" x="-.004" y="52.079"/><use xlink:href="#28" y="2.171"/><use xlink:href="#29" y="6.513"/><use xlink:href="#30" y="8.684"/><use xlink:href="#31" y="10.855"/><use xlink:href="#32" y="13.026"/><use xlink:href="#33" y="15.197"/><use xlink:href="#34" y="17.368"/><use xlink:href="#35" y="19.539"/><use xlink:href="#36" y="21.71"/><use xlink:href="#37" y="26.052"/><use xlink:href="#38" y="30.394"/><use xlink:href="#39" y="32.565"/><use xlink:href="#40" y="34.736"/><use xlink:href="#41" y="36.907"/><use xlink:href="#42" y="39.078"/><use xlink:href="#43" y="45.591"/><use xlink:href="#44" y="49.933"/></svg><svg x="1200"><use xlink:href="#a"/><use xlink:href="#b" x="-.004" y="52.079"/><use xlink:href="#33"/><use xlink:href="#34" y="2.171"/><use xlink:href="#35" y="4.342"/><use xlink:href="#36" y="6.513"/><use xlink:href="#37" y="10.855"/><use xlink:href="#38" y="15.197"/><use xlink:href="#39" y="17.368"/><use xlink:href="#40" y="19.539"/><use xlink:href="#41" y="21.71"/><use xlink:href="#42" y="23.881"/><use xlink:href="#43" y="30.394"/><use xlink:href="#44" y="34.736"/><use xlink:href="#45" y="36.907"/><use xlink:href="#46" y="39.078"/><use xlink:href="#47" y="41.249"/><use xlink:href="#47" y="43.42"/><use xlink:href="#47" y="45.591"/><use xlink:href="#48" y="47.762"/></svg><svg x="1280"><use xlink:href="#a"/><use xlink:href="#b" x="-.004" y="52.079"/><use xlink:href="#36"/><use xlink:href="#37" y="4.342"/><use xlink:href="#38" y="8.684"/><use xlink:href="#39" y="10.855"/><use xlink:href="#40" y="13.026"/><use xlink:href="#41" y="15.197"/><use xlink:href="#42" y="17.368"/><use xlink:href="#43" y="23.881"/><use xlink:href="#44" y="28.223"/><use xlink:href="#45" y="30.394"/><use xlink:href="#46" y="32.565"/><use xlink:href="#47" y="34.736"/><use xlink:href="#47" y="36.907"/><use xlink:href="#47" y="39.078"/><use xlink:href="#48" y="41.249"/><use xlink:href="#49" y="47.762"/></svg><svg x="1360"><use xlink:href="#a"/><use xlink:href="#b" x="-.004" y="52.079"/><use xlink:href="#43" y="4.342"/><use xlink:href="#44" y="8.684"/><use xlink:href="#45" y="10.855"/><use xlink:href="#46" y="13.026"/><use xlink:href="#47" y="15.197"/><use xlink:href="#47" y="17.368"/><use xlink:href="#47" y="19.539"/><use xlink:href="#48" y="21.71"/><use xlink:href="#49" y="28.223"/><text x="2.004" y="36.406" class="f">agent</text><text x="9.018" y="36.406" class="f">─►</text><text x="13.026" y="36.406" class="f">sidecar</text><text x="22.044" y="36.406" class="f">─►</text><text x="26.052" y="36.406" class="f">ledger</text><text x="34.068" y="36.406" class="f">─►</text><text x="38.076" y="36.406" class="f">audit_outbox</text><text x="52.104" y="36.406" class="f">─►</text><text x="56.112" y="36.406" class="f">canonical_events</text><text x="14.028" y="38.577" class="f">│</text><text x="28.056" y="38.577" class="f">│</text><text x="42.084" y="38.577" class="f">│</text><text x="14.028" y="40.748" class="f">│</text><text x="28.056" y="40.748" class="f">│</text><text x="42.084" y="40.748" class="f">└─</text><text x="45.09" y="40.748" class="f">Postgres</text><text x="54.108" y="40.748" class="f">SERIALIZABLE</text><text x="14.028" y="42.919" class="f">│</text><text x="28.056" y="42.919" class="f">└─</text><text x="31.062" y="42.919" class="f">atomic</text><text x="38.076" y="42.919" class="f">reserve</text><text x="46.092" y="42.919" class="f">/</text><text x="48.096" y="42.919" class="f">denied_decision</text><text x="14.028" y="45.09" class="f">└─</text><text x="17.034" y="45.09" class="f">contract</text><text x="26.052" y="45.09" class="f">evaluator</text><text x="36.072" y="45.09" class="f">(Stage</text><text x="43.086" y="45.09" class="f">2,</text><text x="46.092" y="45.09" class="f">&lt;5</text><text x="49.098" y="45.09" class="f">ms</text><text x="52.104" y="45.09" class="f">hot-path)</text><text x="2.004" y="49.432" class="f">Demo</text><text x="7.014" y="49.432" class="f">modes</text><text x="13.026" y="49.432" class="f">(all</text><text x="18.036" y="49.432" class="f">green):</text><text x="26.052" y="49.432" class="f">decision</text><text x="35.07" y="49.432" class="f">·</text><text x="37.074" y="49.432" class="f">invoice</text><text x="45.09" y="49.432" class="f">·</text><text x="47.094" y="49.432" class="f">agent</text><text x="53.106" y="49.432" class="f">·</text><text x="55.11" y="49.432" class="f">release</text><text x="63.126" y="49.432" class="f">·</text><text x="65.13" y="49.432" class="f">ttl_sweep</text><text x="75.15" y="49.432" class="f">·</text><text x="77.154" y="49.432" class="f">den</text><text y="51.603" class="f">y</text></svg></svg></g></g></svg></svg>