<svg xmlns="http://www.w3.org/2000/svg" xmlns:xlink="http://www.w3.org/1999/xlink" width="840" height="581.04"><rect width="840" height="581.04" rx="5" ry="5" class="a"/><svg y="0%" x="0%"><circle cx="20" cy="20" r="6" fill="#ff5f58"/><circle cx="40" cy="20" r="6" fill="#ffbd2e"/><circle cx="60" cy="20" r="6" fill="#18c132"/></svg><svg height="521.04" viewBox="0 0 80 52.104" width="800" x="15" xmlns="http://www.w3.org/2000/svg" xmlns:xlink="http://www.w3.org/1999/xlink" y="50"><style>@keyframes i{0%{transform:translateX(0)}.5%{transform:translateX(-80px)}13.7%{transform:translateX(-160px)}13.8%{transform:translateX(-240px)}27%{transform:translateX(-400px)}40.3%{transform:translateX(-560px)}53.6%{transform:translateX(-640px)}to{transform:translateX(-720px)}}.a{fill:#282d35}.f{fill:#b9c0cb;white-space:pre}</style><g font-family="Monaco,Consolas,Menlo,'Bitstream Vera Sans Mono','Powerline Symbols',monospace" font-size="1.67"><defs><symbol id="1"><text y="1.67" class="f">$</text><text x="2.004" y="1.67" class="f">make</text><text x="7.014" y="1.67" class="f">benchmark</text></symbol><symbol id="2"><text x="1.002" y="1.67" class="f">Volume</text><text x="8.016" y="1.67" class="f">spendguard-benchmark_results</text><text x="38.076" y="1.67" class="f">Creating</text></symbol><symbol id="3"><text x="1.002" y="1.67" class="f">Volume</text><text x="8.016" y="1.67" class="f">spendguard-benchmark_results</text><text x="38.076" y="1.67" class="f">Created</text></symbol><symbol id="4"><text y="1.67" class="f">{</text></symbol><symbol id="5"><text x="2.004" y="1.67" class="f">&quot;runner&quot;:</text><text x="12.024" y="1.67" class="f">&quot;agentbudget&quot;,</text></symbol><symbol id="6"><text x="2.004" y="1.67" class="f">&quot;budget_usd&quot;:</text><text x="16.032" y="1.67" class="f">1.0,</text></symbol><symbol id="7"><text x="2.004" y="1.67" class="f">&quot;max_calls&quot;:</text><text x="15.03" y="1.67" class="f">100,</text></symbol><symbol id="8"><text x="2.004" y="1.67" class="f">&quot;calls_attempted&quot;:</text><text x="21.042" y="1.67" class="f">6,</text></symbol><symbol id="9"><text x="2.004" y="1.67" class="f">&quot;calls_succeeded&quot;:</text><text x="21.042" y="1.67" class="f">5,</text></symbol><symbol id="10"><text x="2.004" y="1.67" class="f">&quot;abort_at_call&quot;:</text><text x="19.038" y="1.67" class="f">6,</text></symbol><symbol id="11"><text x="2.004" y="1.67" class="f">&quot;abort_exception_class&quot;:</text><text x="27.054" y="1.67" class="f">&quot;BudgetExhausted&quot;,</text></symbol><symbol id="12"><text x="2.004" y="1.67" class="f">&quot;abort_reason&quot;:</text><text x="18.036" y="1.67" class="f">&quot;Budget</text><text x="26.052" y="1.67" class="f">exhausted:</text><text x="37.074" y="1.67" class="f">spent</text><text x="43.086" y="1.67" class="f">$1.0800</text><text x="51.102" y="1.67" class="f">of</text><text x="54.108" y="1.67" class="f">$1.00</text><text x="60.12" y="1.67" class="f">budget&quot;,</text></symbol><symbol id="13"><text x="2.004" y="1.67" class="f">&quot;self_reported_spent&quot;:</text><text x="25.05" y="1.67" class="f">&quot;0.8999999999999999&quot;,</text></symbol><symbol id="14"><text x="2.004" y="1.67" class="f">&quot;self_reported_remaining&quot;:</text><text x="29.058" y="1.67" class="f">&quot;0.10000000000000009&quot;,</text></symbol><symbol id="15"><text x="2.004" y="1.67" class="f">&quot;elapsed_seconds&quot;:</text><text x="21.042" y="1.67" class="f">0.14</text></symbol><symbol id="16"><text y="1.67" class="f">}</text></symbol><symbol id="17"><text y="1.67" class="f">--------------------------------------------------</text></symbol><symbol id="18"><text x="2.004" y="1.67" class="f">&quot;runner&quot;:</text><text x="12.024" y="1.67" class="f">&quot;agentguard&quot;,</text></symbol><symbol id="19"><text x="2.004" y="1.67" class="f">&quot;budget_usd&quot;:</text><text x="16.032" y="1.67" class="f">1,</text></symbol><symbol id="20"><text x="2.004" y="1.67" class="f">&quot;calls_attempted&quot;:</text><text x="21.042" y="1.67" class="f">100,</text></symbol><symbol id="21"><text x="2.004" y="1.67" class="f">&quot;calls_succeeded&quot;:</text><text x="21.042" y="1.67" class="f">100,</text></symbol><symbol id="22"><text x="2.004" y="1.67" class="f">&quot;abort_at_call&quot;:</text><text x="19.038" y="1.67" class="f">null,</text></symbol><symbol id="23"><text x="2.004" y="1.67" class="f">&quot;abort_exception_class&quot;:</text><text x="27.054" y="1.67" class="f">null,</text></symbol><symbol id="24"><text x="2.004" y="1.67" class="f">&quot;abort_reason&quot;:</text><text x="18.036" y="1.67" class="f">null,</text></symbol><symbol id="25"><text x="2.004" y="1.67" class="f">&quot;self_reported_spent&quot;:</text><text x="25.05" y="1.67" class="f">0,</text></symbol><symbol id="26"><text x="2.004" y="1.67" class="f">&quot;self_reported_remaining&quot;:</text><text x="29.058" y="1.67" class="f">1,</text></symbol><symbol id="27"><text x="2.004" y="1.67" class="f">&quot;elapsed_seconds&quot;:</text><text x="21.042" y="1.67" class="f">1.957</text></symbol><symbol id="28"><text x="2.004" y="1.67" class="f">&quot;runner&quot;:</text><text x="12.024" y="1.67" class="f">&quot;spendguard&quot;,</text></symbol><symbol id="29"><text x="2.004" y="1.67" class="f">&quot;abort_exception_class&quot;:</text><text x="27.054" y="1.67" class="f">&quot;ReservationDenied&quot;,</text></symbol><symbol id="30"><text x="2.004" y="1.67" class="f">&quot;abort_reason&quot;:</text><text x="18.036" y="1.67" class="f">&quot;{\&quot;detail\&quot;:</text><text x="32.064" y="1.67" class="f">{\&quot;reason\&quot;:</text><text x="45.09" y="1.67" class="f">\&quot;would_exceed_budget\&quot;,</text><text x="70.14" y="1.67" class="f">\&quot;amount_u</text></symbol><symbol id="31"><text y="1.67" class="f">sd\&quot;:</text><text x="6.012" y="1.67" class="f">0.18,</text><text x="12.024" y="1.67" class="f">\&quot;spent\&quot;:</text><text x="23.046" y="1.67" class="f">0.8999999999999999,</text><text x="43.086" y="1.67" class="f">\&quot;reserved\&quot;:</text><text x="57.114" y="1.67" class="f">0,</text><text x="60.12" y="1.67" class="f">\&quot;budget_usd\&quot;:</text><text x="76.152" y="1.67" class="f">1.0,</text></symbol><symbol id="32"><text x="1.002" y="1.67" class="f">\&quot;remaining_usd\&quot;:</text><text x="20.04" y="1.67" class="f">0.10000000000000009}}&quot;,</text></symbol><symbol id="33"><text x="2.004" y="1.67" class="f">&quot;self_reported_spent&quot;:</text><text x="25.05" y="1.67" class="f">0.9,</text></symbol><symbol id="34"><text x="2.004" y="1.67" class="f">&quot;self_reported_remaining&quot;:</text><text x="29.058" y="1.67" class="f">0.1,</text></symbol><symbol id="35"><text x="2.004" y="1.67" class="f">&quot;elapsed_seconds&quot;:</text><text x="21.042" y="1.67" class="f">0.795</text></symbol><symbol id="36"><text y="1.67" class="f">|</text><text x="2.004" y="1.67" class="f">`agentbudget`</text><text x="16.032" y="1.67" class="f">|</text><text x="18.036" y="1.67" class="f">$1.00</text><text x="24.048" y="1.67" class="f">|</text><text x="26.052" y="1.67" class="f">6</text><text x="28.056" y="1.67" class="f">|</text><text x="30.06" y="1.67" class="f">5</text><text x="32.064" y="1.67" class="f">|</text><text x="34.068" y="1.67" class="f">$1.0800</text><text x="42.084" y="1.67" class="f">|</text><text x="44.088" y="1.67" class="f">+8.0%</text><text x="50.1" y="1.67" class="f">|</text><text x="52.104" y="1.67" class="f">6</text><text x="54.108" y="1.67" class="f">|</text><text x="56.112" y="1.67" class="f">`BudgetExhausted`</text><text x="74.148" y="1.67" class="f">|</text></symbol><symbol id="37"><text y="1.67" class="f">|</text><text x="2.004" y="1.67" class="f">`agentguard`</text><text x="15.03" y="1.67" class="f">|</text><text x="17.034" y="1.67" class="f">$1.00</text><text x="23.046" y="1.67" class="f">|</text><text x="25.05" y="1.67" class="f">100</text><text x="29.058" y="1.67" class="f">|</text><text x="31.062" y="1.67" class="f">100</text><text x="35.07" y="1.67" class="f">|</text><text x="37.074" y="1.67" class="f">$18.0000</text><text x="46.092" y="1.67" class="f">|</text><text x="48.096" y="1.67" class="f">+1700.0%</text><text x="57.114" y="1.67" class="f">|</text><text x="59.118" y="1.67" class="f">—</text><text x="61.122" y="1.67" class="f">|</text><text x="63.126" y="1.67" class="f">`—`</text><text x="67.134" y="1.67" class="f">|</text></symbol><symbol id="38"><text y="1.67" class="f">|</text><text x="2.004" y="1.67" class="f">`spendguard`</text><text x="15.03" y="1.67" class="f">|</text><text x="17.034" y="1.67" class="f">$1.00</text><text x="23.046" y="1.67" class="f">|</text><text x="25.05" y="1.67" class="f">5</text><text x="27.054" y="1.67" class="f">|</text><text x="29.058" y="1.67" class="f">5</text><text x="31.062" y="1.67" class="f">|</text><text x="33.066" y="1.67" class="f">$0.9000</text><text x="41.082" y="1.67" class="f">|</text><text x="43.086" y="1.67" class="f">-10.0%</text><text x="50.1" y="1.67" class="f">|</text><text x="52.104" y="1.67" class="f">6</text><text x="54.108" y="1.67" class="f">|</text><text x="56.112" y="1.67" class="f">`ReservationDenied`</text><text x="76.152" y="1.67" class="f">|</text></symbol><symbol id="a"><path fill="transparent" d="M0 0h80v25H0z"/></symbol><symbol id="b"><path fill="#6f7683" d="M0 0h1.102v2.171H0z"/></symbol></defs><path class="a" d="M0 0h80v52.104H0z"/><g style="animation-duration:7.537s;animation-iteration-count:infinite;animation-name:i;animation-timing-function:steps(1,end)"><svg width="800"><svg><use xlink:href="#a"/><use xlink:href="#b" x="-.004"/></svg><svg x="80"><use xlink:href="#a"/><use xlink:href="#b" x="-.004" y="4.317"/><use xlink:href="#1"/></svg><svg x="160"><use xlink:href="#a"/><use xlink:href="#b" x="-.004" y="36.882"/><use xlink:href="#1"/><use xlink:href="#2" y="4.342"/><use xlink:href="#3" y="6.513"/><use xlink:href="#4" y="8.684"/><use xlink:href="#5" y="10.855"/><use xlink:href="#6" y="13.026"/><use xlink:href="#7" y="15.197"/><use xlink:href="#8" y="17.368"/><use xlink:href="#9" y="19.539"/><use xlink:href="#10" y="21.71"/><use xlink:href="#11" y="23.881"/><use xlink:href="#12" y="26.052"/><use xlink:href="#13" y="28.223"/><use xlink:href="#14" y="30.394"/><use xlink:href="#15" y="32.565"/><use xlink:href="#16" y="34.736"/></svg><svg x="240"><use xlink:href="#a"/><use xlink:href="#b" x="-.004" y="39.053"/><use xlink:href="#1"/><use xlink:href="#2" y="4.342"/><use xlink:href="#3" y="6.513"/><use xlink:href="#4" y="8.684"/><use xlink:href="#5" y="10.855"/><use xlink:href="#6" y="13.026"/><use xlink:href="#7" y="15.197"/><use xlink:href="#8" y="17.368"/><use xlink:href="#9" y="19.539"/><use xlink:href="#10" y="21.71"/><use xlink:href="#11" y="23.881"/><use xlink:href="#12" y="26.052"/><use xlink:href="#13" y="28.223"/><use xlink:href="#14" y="30.394"/><use xlink:href="#15" y="32.565"/><use xlink:href="#16" y="34.736"/></svg><svg x="320"><use xlink:href="#a"/><use xlink:href="#b" x="-.004" y="52.079"/><use xlink:href="#9"/><use xlink:href="#10" y="2.171"/><use xlink:href="#11" y="4.342"/><use xlink:href="#12" y="6.513"/><use xlink:href="#13" y="8.684"/><use xlink:href="#14" y="10.855"/><use xlink:href="#15" y="13.026"/><use xlink:href="#16" y="15.197"/><use xlink:href="#17" y="19.539"/><use xlink:href="#4" y="23.881"/><use xlink:href="#18" y="26.052"/><use xlink:href="#19" y="28.223"/><use xlink:href="#7" y="30.394"/><use xlink:href="#20" y="32.565"/><use xlink:href="#21" y="34.736"/><use xlink:href="#22" y="36.907"/><use xlink:href="#23" y="39.078"/><use xlink:href="#24" y="41.249"/><use xlink:href="#25" y="43.42"/><use xlink:href="#26" y="45.591"/><use xlink:href="#27" y="47.762"/><use xlink:href="#16" y="49.933"/></svg><svg x="400"><use xlink:href="#a"/><use xlink:href="#b" x="-.004" y="52.079"/><use xlink:href="#10"/><use xlink:href="#11" y="2.171"/><use xlink:href="#12" y="4.342"/><use xlink:href="#13" y="6.513"/><use xlink:href="#14" y="8.684"/><use xlink:href="#15" y="10.855"/><use xlink:href="#16" y="13.026"/><use xlink:href="#17" y="17.368"/><use xlink:href="#4" y="21.71"/><use xlink:href="#18" y="23.881"/><use xlink:href="#19" y="26.052"/><use xlink:href="#7" y="28.223"/><use xlink:href="#20" y="30.394"/><use xlink:href="#21" y="32.565"/><use xlink:href="#22" y="34.736"/><use xlink:href="#23" y="36.907"/><use xlink:href="#24" y="39.078"/><use xlink:href="#25" y="41.249"/><use xlink:href="#26" y="43.42"/><use xlink:href="#27" y="45.591"/><use xlink:href="#16" y="47.762"/></svg><svg x="480"><use xlink:href="#a"/><use xlink:href="#b" x="-.004" y="52.079"/><use xlink:href="#21"/><use xlink:href="#22" y="2.171"/><use xlink:href="#23" y="4.342"/><use xlink:href="#24" y="6.513"/><use xlink:href="#25" y="8.684"/><use xlink:href="#26" y="10.855"/><use xlink:href="#27" y="13.026"/><use xlink:href="#16" y="15.197"/><use xlink:href="#4" y="19.539"/><use xlink:href="#28" y="21.71"/><use xlink:href="#6" y="23.881"/><use xlink:href="#7" y="26.052"/><use xlink:href="#8" y="28.223"/><use xlink:href="#9" y="30.394"/><use xlink:href="#10" y="32.565"/><use xlink:href="#29" y="34.736"/><use xlink:href="#30" y="36.907"/><use xlink:href="#31" y="39.078"/><use xlink:href="#32" y="41.249"/><use xlink:href="#33" y="43.42"/><use xlink:href="#34" y="45.591"/><use xlink:href="#35" y="47.762"/><use xlink:href="#16" y="49.933"/></svg><svg x="560"><use xlink:href="#a"/><use xlink:href="#b" x="-.004" y="52.079"/><use xlink:href="#22"/><use xlink:href="#23" y="2.171"/><use xlink:href="#24" y="4.342"/><use xlink:href="#25" y="6.513"/><use xlink:href="#26" y="8.684"/><use xlink:href="#27" y="10.855"/><use xlink:href="#16" y="13.026"/><use xlink:href="#4" y="17.368"/><use xlink:href="#28" y="19.539"/><use xlink:href="#6" y="21.71"/><use xlink:href="#7" y="23.881"/><use xlink:href="#8" y="26.052"/><use xlink:href="#9" y="28.223"/><use xlink:href="#10" y="30.394"/><use xlink:href="#29" y="32.565"/><use xlink:href="#30" y="34.736"/><use xlink:href="#31" y="36.907"/><use xlink:href="#32" y="39.078"/><use xlink:href="#33" y="41.249"/><use xlink:href="#34" y="43.42"/><use xlink:href="#35" y="45.591"/><use xlink:href="#16" y="47.762"/></svg><svg x="640"><use xlink:href="#a"/><use xlink:href="#b" x="-.004" y="52.079"/><use xlink:href="#25"/><use xlink:href="#26" y="2.171"/><use xlink:href="#27" y="4.342"/><use xlink:href="#16" y="6.513"/><use xlink:href="#4" y="10.855"/><use xlink:href="#28" y="13.026"/><use xlink:href="#6" y="15.197"/><use xlink:href="#7" y="17.368"/><use xlink:href="#8" y="19.539"/><use xlink:href="#9" y="21.71"/><use xlink:href="#10" y="23.881"/><use xlink:href="#29" y="26.052"/><use xlink:href="#30" y="28.223"/><use xlink:href="#31" y="30.394"/><use xlink:href="#32" y="32.565"/><use xlink:href="#33" y="34.736"/><use xlink:href="#34" y="36.907"/><use xlink:href="#35" y="39.078"/><use xlink:href="#16" y="41.249"/><use xlink:href="#36" y="45.591"/><use xlink:href="#37" y="47.762"/><use xlink:href="#38" y="49.933"/></svg><svg x="720"><use xlink:href="#a"/><use xlink:href="#b" x="-.004" y="52.079"/><use xlink:href="#25"/><use xlink:href="#26" y="2.171"/><use xlink:href="#27" y="4.342"/><use xlink:href="#16" y="6.513"/><use xlink:href="#4" y="10.855"/><use xlink:href="#28" y="13.026"/><use xlink:href="#6" y="15.197"/><use xlink:href="#7" y="17.368"/><use xlink:href="#8" y="19.539"/><use xlink:href="#9" y="21.71"/><use xlink:href="#10" y="23.881"/><use xlink:href="#29" y="26.052"/><use xlink:href="#30" y="28.223"/><use xlink:href="#31" y="30.394"/><use xlink:href="#32" y="32.565"/><use xlink:href="#33" y="34.736"/><use xlink:href="#34" y="36.907"/><use xlink:href="#35" y="39.078"/><use xlink:href="#16" y="41.249"/><use xlink:href="#36" y="45.591"/><use xlink:href="#37" y="47.762"/><use xlink:href="#38" y="49.933"/></svg></svg></g></g></svg></svg>